# xmcd
#
# Track frame offsets: 
#        150
#        14912
#        34927
#        57277
#        72265
#        86427
#        99870
#        122927
#        140192
#        153347
#        169197
#        188100
#        206247
#        222247
#        242230
#        259410
#        277370
#        287615
#        306957
#        319982
#
# Disc length: 4467 seconds
#
# Revision: 4
# Processed by: cddbd v1.5.2PL0 Copyright (c) Steve Scherf et al.
# Submitted via: ExactAudioCopyFreeDBPlugin 1.0
#
DISCID=44117114
DTITLE=John Denver - Thanks To You
DYEAR=2000
DGENRE=Country
TTITLE0=Take Me Home, Country Road
TTITLE1=Ponies
TTITLE2=I Watch You Sleeping
TTITLE3=For You
TTITLE4=Annie's Song
TTITLE5=Eagle and The Hawk
TTITLE6=Sunshine On My Shoulders
TTITLE7=Calypso
TTITLE8=The Flower That Shattered The Rose
TTITLE9=Higher Ground
TTITLE10=Rocky Mountain High
TTITLE11=WindSong
TTITLE12=Two Different Directions
TTITLE13=Chained To You
TTITLE14=A Country Girl In Paris
TTITLE15=Thanks To You
TTITLE16=The First Noel
TTITLE17=Potter's Wheel
TTITLE18=American Child
TTITLE19=High, Wide and Handsome
EXTD=Denver, John - Thanks To You
EXTT0=Take Me Home,Country Roads
EXTT1=
EXTT2=
EXTT3=
EXTT4=
EXTT5=
EXTT6=
EXTT7=
EXTT8=
EXTT9=
EXTT10=
EXTT11=
EXTT12=
EXTT13=
EXTT14=
EXTT15=
EXTT16=
EXTT17=
EXTT18=
EXTT19=
PLAYORDER=
